# xmcd
#
# Track frame offsets:
#	150
#	21409
#	38894
#	54383
#	70937
#	86389
#	103805
#	119459
#	134576
#	151668
#	165750
#	183226
#	200030
#	219009
#	233092
#	250792
#
# Disc length: 3584 seconds
# Revision: 1
# Processed by: cddbd v1.5.2PL0 Copyright (c) Steve Scherf et al.
# Submitted via: dBpowerAMP V12.0
#
DISCID=cf0dfe10
DTITLE=Various Artist - Honky Tonk Kung Fu
DYEAR=2010
DGENRE=Country
TTITLE0=James Lann - Every Kiss Goodnight
TTITLE1=James Lann - Face In The Mirrow
TTITLE2=James Lann - Halfway To Houston
TTITLE3=James Lann - Heaven Ain't The Place To Me
TTITLE4=James Lann - She's Water
TTITLE5=James Lann - Cowboy Killer
TTITLE6=James Lann - Makin' Payments
TTITLE7=James Lann - Honky Tonk Kung Fu
TTITLE8=James Lann - Back On Track
TTITLE9=James Lann - I Owe You One
TTITLE10=James Lann - That's Why I'm Here
TTITLE11=James Lann - Rented Houses
TTITLE12=James Lann - The Talent Requires
TTITLE13=James Lann and Jason Allen - I Owe You One
TTITLE14=James Lann, Jason Allen and Chuck Allen Floyd - That's Why I'm Here
TTITLE15=James Lann - Wildfire
EXTD=
EXTT0=
EXTT1=
EXTT2=
EXTT3=
EXTT4=
EXTT5=
EXTT6=
EXTT7=
EXTT8=
EXTT9=
EXTT10=
EXTT11=
EXTT12=
EXTT13=
EXTT14=
EXTT15=
PLAYORDER=
